<svg
                  width="18"
                  height="18"
                  viewBox="0 0 18 18"
                  fill="none"
                  xmlns="http://www.w3.org/2000/svg"
                >
                  <path
                    d="M15.2202 7.34689L9.59521 12.9719C9.51683 13.0506 9.42368 13.113 9.32112 13.1556C9.21856 13.1981 9.10861 13.2201 8.99756 13.2201C8.88651 13.2201 8.77655 13.1981 8.67399 13.1556C8.57143 13.113 8.47829 13.0506 8.3999 12.9719L2.7749 7.34689C2.61639 7.18839 2.52734 6.9734 2.52734 6.74924C2.52734 6.52507 2.61639 6.31009 2.7749 6.15158C2.93341 5.99307 3.14839 5.90402 3.37256 5.90402C3.59672 5.90402 3.81171 5.99307 3.97021 6.15158L8.99826 11.1796L14.0263 6.15088C14.1848 5.99237 14.3998 5.90332 14.624 5.90332C14.8481 5.90332 15.0631 5.99237 15.2216 6.15088C15.3801 6.30939 15.4692 6.52437 15.4692 6.74853C15.4692 6.9727 15.3801 7.18768 15.2216 7.34619L15.2202 7.34689Z"
                    fill="#343330"
                  />
                </svg>